<svg width="36" height="36" viewBox="0 0 36 36" fill="none" xmlns="http://www.w3.org/2000/svg">
<g clip-path="url(#clip0)">
<path d="M29.0954 25.8618C27.9086 24.5783 26.4806 23.5786 24.9082 22.9087C24.9066 22.9079 24.9049 22.9073 24.9033 22.9068C24.0145 22.5286 23.0793 22.2561 22.1155 22.0974V21.2605C23.5297 20.4321 24.6767 19.1956 25.393 17.7133C27.7726 15.9917 28.8273 13.1797 28.8726 13.0567C28.8789 13.0394 28.8847 13.0221 28.8902 13.0045C29.1596 12.133 29.3019 11.1956 29.3019 10.2934C29.3019 4.61755 24.6844 0 19.0085 0H16.9893C11.3134 0 6.69589 4.61755 6.69589 10.2934C6.69589 11.2094 6.83212 12.1138 7.09964 12.9795C7.13754 13.1028 8.03595 15.951 10.6485 17.9563C11.4651 19.5125 12.7636 20.7776 14.3451 21.5513V22.0303C11.5763 22.3767 9.02087 23.6538 7.06503 25.6896C4.86694 27.9772 3.65625 30.9847 3.65625 34.1584V34.9464C3.65625 35.5284 4.12784 36 4.70984 36H31.2882C31.87 36 32.3418 35.5284 32.3418 34.9464V34.1584C32.3418 31.0726 31.1888 28.1261 29.0954 25.8618ZM25.8843 33.8928H23.1075V32.1281C23.1075 31.1405 23.6629 30.4027 24.1595 30.4027H24.8321C25.3287 30.4027 25.8843 31.1405 25.8843 32.1281V33.8928ZM20.0083 22.9496C20.0056 22.9883 20.005 23.0268 20.0064 23.0647C19.9657 24.0095 19.1849 24.7657 18.2304 24.7657C17.2499 24.7657 16.4523 23.968 16.4523 22.9875V22.2481C16.9409 22.3388 17.4446 22.3866 17.9594 22.3866C18.6663 22.3866 19.353 22.297 20.0083 22.1287V22.9496ZM9.11343 12.3591C8.90744 11.693 8.80307 10.9981 8.80307 10.2934C8.80307 5.77936 12.4753 2.10718 16.9893 2.10718H19.0085C23.5226 2.10718 27.195 5.77936 27.195 10.2934C27.195 10.9762 27.0884 11.6864 26.8871 12.3497C26.8418 12.4645 26.6182 13.01 26.2093 13.6862V12.7425C26.2093 8.2403 22.5467 4.53983 18.0445 4.49368C18.0409 4.49341 18.0374 4.49341 18.0335 4.49341C17.6479 4.49341 17.2928 4.70435 17.1082 5.04382C16.4463 6.26083 15.4083 7.38748 14.1067 8.30154C13.0498 9.0434 11.8891 9.58612 10.7504 9.87067C10.3791 9.9635 10.0871 10.2505 9.98795 10.6202C9.8031 11.3115 9.70917 12.0256 9.70917 12.7425V13.6618C9.29388 12.9185 9.11673 12.3698 9.11343 12.3591ZM12.4557 16.8632C12.4393 16.8231 12.4203 16.7841 12.3989 16.7459C12.0254 15.9535 11.8163 15.0688 11.8163 14.1364V12.7425C11.8163 12.4041 11.8444 12.0666 11.9001 11.7337C13.0754 11.3621 14.2451 10.7784 15.3174 10.0258C16.6778 9.07059 17.8066 7.90796 18.615 6.63519C21.6903 6.96533 24.1021 9.58997 24.1021 12.7425V14.1364C24.1021 14.9834 23.9299 15.7912 23.6184 16.5262C23.5978 16.5652 23.5808 16.6056 23.5657 16.6465C22.979 17.9517 21.9496 19.016 20.6702 19.6479C20.6271 19.6653 20.5854 19.685 20.5453 19.7078C19.7586 20.0742 18.8825 20.2794 17.9594 20.2794C17.212 20.2794 16.4954 20.1451 15.8324 19.8995C15.7912 19.8809 15.7489 19.8644 15.7052 19.8512C14.2891 19.2906 13.1298 18.2181 12.4557 16.8632ZM12.1899 28.3744C12.7084 28.3744 13.1306 28.7965 13.1306 29.3151C13.1306 29.8336 12.7087 30.2558 12.1899 30.2558C11.6713 30.2558 11.2495 29.8336 11.2495 29.3151C11.2495 28.7965 11.6713 28.3744 12.1899 28.3744ZM8.58417 27.1494C9.3381 26.365 10.1997 25.7168 11.1363 25.2186V26.4554C9.97366 26.8852 9.14227 28.005 9.14227 29.3151C9.14227 30.9955 10.5095 32.3627 12.1899 32.3627C13.8705 32.3627 15.2375 30.9955 15.2375 29.3151C15.2375 28.0047 14.4064 26.8852 13.2435 26.4554V24.3877C13.6601 24.2759 14.0856 24.1902 14.5173 24.1323C15.0073 25.7176 16.4864 26.8726 18.2302 26.8726C19.9487 26.8726 21.4093 25.7509 21.9202 24.2012C22.4396 24.2946 22.9482 24.4284 23.4424 24.6V28.3966C22.0449 28.7919 21.0004 30.3143 21.0004 32.1281V33.8931H5.76672C5.83182 31.3646 6.82663 28.9789 8.58417 27.1494ZM27.9915 33.8928V32.1281C27.9915 30.3143 26.947 28.7916 25.5493 28.3964V25.6207C26.2774 26.0851 26.95 26.6449 27.5482 27.2922C29.2203 29.1011 30.1674 31.436 30.2311 33.8928H27.9915Z" fill="white"/>
</g>
<defs>
<clipPath id="clip0">
<rect width="36" height="36" fill="white"/>
</clipPath>
</defs>
</svg>
