<svg width="91" height="159" viewBox="0 0 91 159" fill="none" xmlns="http://www.w3.org/2000/svg">
<path d="M3.88968 156.198L3.88968 159L2.84647 159L2.84647 156.198L-1.22469e-07 156.198L-1.71326e-07 155.081L2.84647 155.081L2.84647 152.234L3.88968 152.234L3.88968 155.081L6.76596 155.081L6.76596 156.198L3.88968 156.198Z" fill="white"/>
<path d="M31.7992 156.198L31.7992 159L30.756 159L30.756 156.198L27.9095 156.198L27.9095 155.081L30.756 155.081L30.756 152.234L31.7992 152.234L31.7992 155.081L34.6755 155.081L34.6755 156.198L31.7992 156.198Z" fill="white"/>
<path d="M59.7088 156.198L59.7088 159L58.6656 159L58.6656 156.198L55.8191 156.198L55.8191 155.081L58.6656 155.081L58.6656 152.234L59.7088 152.234L59.7088 155.081L62.585 155.081L62.585 156.198L59.7088 156.198Z" fill="white"/>
<path d="M87.6184 156.198L87.6184 159L86.5752 159L86.5752 156.198L83.7288 156.198L83.7288 155.081L86.5752 155.081L86.5752 152.234L87.6184 152.234L87.6184 155.081L90.4947 155.081L90.4947 156.198L87.6184 156.198Z" fill="white"/>
<path d="M3.88968 125.751L3.88968 128.553L2.84647 128.553L2.84647 125.751L-1.22469e-07 125.751L-1.71326e-07 124.634L2.84647 124.634L2.84647 121.787L3.88968 121.787L3.88968 124.634L6.76596 124.634L6.76596 125.751L3.88968 125.751Z" fill="#428C91"/>
<path d="M31.7992 125.751L31.7992 128.553L30.756 128.553L30.756 125.751L27.9095 125.751L27.9095 124.634L30.756 124.634L30.756 121.787L31.7992 121.787L31.7992 124.634L34.6755 124.634L34.6755 125.751L31.7992 125.751Z" fill="#428C91"/>
<path d="M59.7088 125.751L59.7088 128.553L58.6656 128.553L58.6656 125.751L55.8191 125.751L55.8191 124.634L58.6656 124.634L58.6656 121.787L59.7088 121.787L59.7088 124.634L62.585 124.634L62.585 125.751L59.7088 125.751Z" fill="#428C91"/>
<path d="M87.6184 125.751L87.6184 128.553L86.5752 128.553L86.5752 125.751L83.7288 125.751L83.7288 124.634L86.5752 124.634L86.5752 121.787L87.6184 121.787L87.6184 124.634L90.4947 124.634L90.4947 125.751L87.6184 125.751Z" fill="white"/>
<path d="M3.88968 95.3046L3.88968 98.1063L2.84647 98.1063L2.84647 95.3046L-1.22469e-07 95.3046L-1.71326e-07 94.1868L2.84647 94.1868L2.84647 91.3404L3.88968 91.3404L3.88968 94.1868L6.76596 94.1868L6.76596 95.3046L3.88968 95.3046Z" fill="#428C91"/>
<path d="M31.7992 95.3046L31.7992 98.1063L30.756 98.1063L30.756 95.3046L27.9095 95.3046L27.9095 94.1868L30.756 94.1868L30.756 91.3404L31.7992 91.3404L31.7992 94.1868L34.6755 94.1868L34.6755 95.3046L31.7992 95.3046Z" fill="#428C91"/>
<path d="M59.7088 95.3046L59.7088 98.1063L58.6656 98.1063L58.6656 95.3046L55.8191 95.3046L55.8191 94.1868L58.6656 94.1868L58.6656 91.3404L59.7088 91.3404L59.7088 94.1868L62.585 94.1868L62.585 95.3046L59.7088 95.3046Z" fill="#428C91"/>
<path d="M87.6184 95.3046L87.6184 98.1063L86.5752 98.1063L86.5752 95.3046L83.7288 95.3046L83.7288 94.1868L86.5752 94.1868L86.5752 91.3404L87.6184 91.3404L87.6184 94.1868L90.4947 94.1868L90.4947 95.3046L87.6184 95.3046Z" fill="white"/>
<path d="M3.88968 64.8578L3.88968 67.6595L2.84647 67.6595L2.84647 64.8578L-1.22469e-07 64.8578L-1.71326e-07 63.7401L2.84647 63.7401L2.84647 60.8936L3.88968 60.8936L3.88968 63.7401L6.76596 63.7401L6.76596 64.8578L3.88968 64.8578Z" fill="white"/>
<path d="M31.7992 64.8578L31.7992 67.6595L30.756 67.6595L30.756 64.8578L27.9095 64.8578L27.9095 63.7401L30.756 63.7401L30.756 60.8936L31.7992 60.8936L31.7992 63.7401L34.6755 63.7401L34.6755 64.8578L31.7992 64.8578Z" fill="#428C91"/>
<path d="M59.7088 64.8578L59.7088 67.6595L58.6656 67.6595L58.6656 64.8578L55.8191 64.8578L55.8191 63.7401L58.6656 63.7401L58.6656 60.8936L59.7088 60.8936L59.7088 63.7401L62.585 63.7401L62.585 64.8578L59.7088 64.8578Z" fill="#428C91"/>
<path d="M87.6184 64.8578L87.6184 67.6595L86.5752 67.6595L86.5752 64.8578L83.7288 64.8578L83.7288 63.7401L86.5752 63.7401L86.5752 60.8936L87.6184 60.8936L87.6184 63.7401L90.4947 63.7401L90.4947 64.8578L87.6184 64.8578Z" fill="white"/>
<path d="M3.88968 34.411L3.88968 37.2128L2.84647 37.2128L2.84647 34.411L-1.22469e-07 34.411L-1.71326e-07 33.2933L2.84647 33.2933L2.84647 30.4468L3.88968 30.4468L3.88968 33.2933L6.76596 33.2933L6.76596 34.411L3.88968 34.411Z" fill="white"/>
<path d="M31.7992 34.411L31.7992 37.2128L30.756 37.2128L30.756 34.411L27.9095 34.411L27.9095 33.2933L30.756 33.2933L30.756 30.4468L31.7992 30.4468L31.7992 33.2933L34.6755 33.2933L34.6755 34.411L31.7992 34.411Z" fill="white"/>
<path d="M59.7088 34.411L59.7088 37.2128L58.6656 37.2128L58.6656 34.411L55.8191 34.411L55.8191 33.2933L58.6656 33.2933L58.6656 30.4468L59.7088 30.4468L59.7088 33.2933L62.585 33.2933L62.585 34.411L59.7088 34.411Z" fill="white"/>
<path d="M87.6184 34.411L87.6184 37.2128L86.5752 37.2128L86.5752 34.411L83.7288 34.411L83.7288 33.2933L86.5752 33.2933L86.5752 30.4468L87.6184 30.4468L87.6184 33.2933L90.4947 33.2933L90.4947 34.411L87.6184 34.411Z" fill="white"/>
<path d="M3.88968 3.96423L3.88968 6.76599L2.84647 6.76599L2.84647 3.96423L-1.22469e-07 3.96423L-1.71326e-07 2.8465L2.84647 2.8465L2.84647 3.3731e-05L3.88968 3.36854e-05L3.88968 2.8465L6.76596 2.8465L6.76596 3.96423L3.88968 3.96423Z" fill="white"/>
<path d="M31.7992 3.96423L31.7992 6.76599L30.756 6.76599L30.756 3.96423L27.9095 3.96423L27.9095 2.8465L30.756 2.8465L30.756 3.3731e-05L31.7992 3.36854e-05L31.7992 2.8465L34.6755 2.8465L34.6755 3.96423L31.7992 3.96423Z" fill="white"/>
<path d="M59.7088 3.96423L59.7088 6.76599L58.6656 6.76599L58.6656 3.96423L55.8191 3.96423L55.8191 2.8465L58.6656 2.8465L58.6656 3.3731e-05L59.7088 3.36854e-05L59.7088 2.8465L62.585 2.8465L62.585 3.96423L59.7088 3.96423Z" fill="white"/>
<path d="M87.6184 3.96423L87.6184 6.76599L86.5752 6.76599L86.5752 3.96423L83.7288 3.96423L83.7288 2.8465L86.5752 2.8465L86.5752 3.3731e-05L87.6184 3.36854e-05L87.6184 2.8465L90.4947 2.8465L90.4947 3.96423L87.6184 3.96423Z" fill="white"/>
</svg>
