<svg width="188" height="107" viewBox="0 0 188 107" fill="none" xmlns="http://www.w3.org/2000/svg">
<path d="M3.31278 4.59912H0V3.36564H3.31278V0H4.63436V3.36564H8V4.59912H4.63436V8H3.31278V4.59912Z" fill="#8CA5CA"/>
<path d="M3.31278 37.5991H0V36.3656H3.31278V33H4.63436V36.3656H8V37.5991H4.63436V41H3.31278V37.5991Z" fill="#8CA5CA"/>
<path d="M3.31278 70.5991H0V69.3656H3.31278V66H4.63436V69.3656H8V70.5991H4.63436V74H3.31278V70.5991Z" fill="#8CA5CA"/>
<path d="M3.31278 103.599H0V102.366H3.31278V99H4.63436V102.366H8V103.599H4.63436V107H3.31278V103.599Z" fill="#8CA5CA"/>
<path d="M39.3128 4.59912H36V3.36564H39.3128V0H40.6344V3.36564H44V4.59912H40.6344V8H39.3128V4.59912Z" fill="#A8A8A8"/>
<path d="M39.3128 37.5991H36V36.3656H39.3128V33H40.6344V36.3656H44V37.5991H40.6344V41H39.3128V37.5991Z" fill="#A8A8A8"/>
<path d="M39.3128 70.5991H36V69.3656H39.3128V66H40.6344V69.3656H44V70.5991H40.6344V74H39.3128V70.5991Z" fill="#A8A8A8"/>
<path d="M39.3128 103.599H36V102.366H39.3128V99H40.6344V102.366H44V103.599H40.6344V107H39.3128V103.599Z" fill="#8CA5CA"/>
<path d="M75.3128 4.59912H72V3.36564H75.3128V0H76.6344V3.36564H80V4.59912H76.6344V8H75.3128V4.59912Z" fill="#A8A8A8"/>
<path d="M75.3128 37.5991H72V36.3656H75.3128V33H76.6344V36.3656H80V37.5991H76.6344V41H75.3128V37.5991Z" fill="#A8A8A8"/>
<path d="M75.3128 70.5991H72V69.3656H75.3128V66H76.6344V69.3656H80V70.5991H76.6344V74H75.3128V70.5991Z" fill="#A8A8A8"/>
<path d="M75.3128 103.599H72V102.366H75.3128V99H76.6344V102.366H80V103.599H76.6344V107H75.3128V103.599Z" fill="#8CA5CA"/>
<path d="M111.313 4.59912H108V3.36564H111.313V0H112.634V3.36564H116V4.59912H112.634V8H111.313V4.59912Z" fill="#8CA5CA"/>
<path d="M111.313 37.5991H108V36.3656H111.313V33H112.634V36.3656H116V37.5991H112.634V41H111.313V37.5991Z" fill="#A8A8A8"/>
<path d="M111.313 70.5991H108V69.3656H111.313V66H112.634V69.3656H116V70.5991H112.634V74H111.313V70.5991Z" fill="#A8A8A8"/>
<path d="M111.313 103.599H108V102.366H111.313V99H112.634V102.366H116V103.599H112.634V107H111.313V103.599Z" fill="#8CA5CA"/>
<path d="M147.313 4.59912H144V3.36564H147.313V0H148.634V3.36564H152V4.59912H148.634V8H147.313V4.59912Z" fill="#8CA5CA"/>
<path d="M147.313 37.5991H144V36.3656H147.313V33H148.634V36.3656H152V37.5991H148.634V41H147.313V37.5991Z" fill="#8CA5CA"/>
<path d="M147.313 70.5991H144V69.3656H147.313V66H148.634V69.3656H152V70.5991H148.634V74H147.313V70.5991Z" fill="#8CA5CA"/>
<path d="M147.313 103.599H144V102.366H147.313V99H148.634V102.366H152V103.599H148.634V107H147.313V103.599Z" fill="#8CA5CA"/>
<path d="M183.313 4.59912H180V3.36564H183.313V0H184.634V3.36564H188V4.59912H184.634V8H183.313V4.59912Z" fill="#8CA5CA"/>
<path d="M183.313 37.5991H180V36.3656H183.313V33H184.634V36.3656H188V37.5991H184.634V41H183.313V37.5991Z" fill="#8CA5CA"/>
<path d="M183.313 70.5991H180V69.3656H183.313V66H184.634V69.3656H188V70.5991H184.634V74H183.313V70.5991Z" fill="#8CA5CA"/>
<path d="M183.313 103.599H180V102.366H183.313V99H184.634V102.366H188V103.599H184.634V107H183.313V103.599Z" fill="#8CA5CA"/>
</svg>
