<svg width="19" height="19" viewBox="0 0 19 19" fill="none" xmlns="http://www.w3.org/2000/svg">
<path d="M18.5018 13.9441L15.8447 11.2926C14.8957 10.3456 13.2825 10.7244 12.9029 11.9555C12.6182 12.8077 11.6693 13.2812 10.8152 13.0918C8.91729 12.6183 6.3551 10.1562 5.88062 8.16759C5.59593 7.31532 6.16531 6.36835 7.01937 6.08426C8.25302 5.70547 8.63261 4.09563 7.68364 3.14866L5.02656 0.497157C4.26739 -0.165719 3.12863 -0.165719 2.46436 0.497157L0.661337 2.29639C-1.14169 4.19033 0.851129 9.20925 5.31124 13.66C9.77136 18.1107 14.8008 20.1941 16.6988 18.3001L18.5018 16.5009C19.1661 15.7433 19.1661 14.607 18.5018 13.9441Z" fill="#42BDC5"/>
</svg>
