<svg width="29" height="29" viewBox="0 0 29 29" fill="none" xmlns="http://www.w3.org/2000/svg">
<g clip-path="url(#clip0)">
<path d="M24.8072 12.1694C24.842 8.08079 21.3597 4.33259 17.0445 3.81428C16.9587 3.8041 16.8652 3.78861 16.7662 3.77222C16.5526 3.73682 16.3317 3.70044 16.1088 3.70044C15.2244 3.70044 14.988 4.32169 14.9257 4.6922C14.8652 5.05245 14.9229 5.35497 15.097 5.59174C15.3899 5.99 15.9052 6.0607 16.3192 6.11735C16.4405 6.1341 16.5549 6.14968 16.6508 6.1712C20.5278 7.03751 21.8332 8.39952 22.4712 12.2436C22.4868 12.3375 22.4938 12.4532 22.5013 12.576C22.5291 13.0355 22.5871 13.9915 23.6149 13.9915H23.615C23.7006 13.9915 23.7925 13.9841 23.8883 13.9695C24.8453 13.8241 24.8154 12.9502 24.8009 12.5303C24.7969 12.4121 24.793 12.3002 24.803 12.2258C24.8057 12.2071 24.8071 12.1883 24.8072 12.1694Z" fill="white"/>
<path d="M15.8579 2.31352C15.9727 2.3218 16.0814 2.32973 16.1719 2.3436C22.5383 3.32266 25.4661 6.33902 26.2775 12.7552C26.2913 12.8643 26.2935 12.9973 26.2957 13.1382C26.3038 13.6395 26.3205 14.6823 27.4404 14.7039L27.4752 14.7043C27.8264 14.7043 28.1058 14.5983 28.3056 14.3892C28.6543 14.0246 28.6299 13.4828 28.6103 13.0475C28.6055 12.9407 28.6009 12.8401 28.6021 12.752C28.6831 6.18988 23.0029 0.239385 16.4466 0.0181025C16.4194 0.0172019 16.3935 0.0186429 16.3673 0.0223354C16.3544 0.0242267 16.3305 0.0265683 16.2896 0.0265683C16.2242 0.0265683 16.1438 0.0208944 16.0585 0.0151304C15.9554 0.00810559 15.8385 0 15.72 0C14.6759 0 14.4774 0.742112 14.452 1.1845C14.3935 2.20688 15.3825 2.27884 15.8579 2.31352Z" fill="white"/>
<path d="M25.9703 21.0477C25.8349 20.9444 25.695 20.8374 25.5639 20.7318C24.8688 20.1724 24.1293 19.6568 23.4142 19.1582C23.2657 19.0548 23.1173 18.9513 22.9694 18.8475C22.0533 18.204 21.2297 17.8913 20.4516 17.8913C19.4035 17.8913 18.4897 18.4704 17.7356 19.6123C17.4014 20.1186 16.9961 20.3647 16.4965 20.3647C16.2011 20.3647 15.8654 20.2804 15.499 20.1141C12.542 18.7731 10.4305 16.7172 9.22299 14.0034C8.6393 12.6917 8.82852 11.8343 9.85577 11.1365C10.4391 10.7406 11.5249 10.0035 11.448 8.59206C11.3609 6.98923 7.82433 2.16649 6.33425 1.61874C5.70336 1.38674 5.04051 1.38457 4.36054 1.61333C2.64756 2.18919 1.4183 3.2005 0.805335 4.53774C0.212996 5.82986 0.239744 7.34705 0.882698 8.92529C2.7414 13.4884 5.35464 17.4668 8.6501 20.7498C11.8758 23.9636 15.8404 26.5961 20.4337 28.574C20.8478 28.7521 21.282 28.8493 21.5991 28.9202C21.7072 28.9445 21.8005 28.9652 21.8685 28.9838C21.9059 28.994 21.9444 28.9995 21.9831 28.9999L22.0194 29.0001C22.0195 29.0001 22.0194 29.0001 22.0196 29.0001C24.18 29.0001 26.774 27.0259 27.5707 24.7752C28.2687 22.8045 26.9943 21.8304 25.9703 21.0477Z" fill="white"/>
<path d="M16.8134 7.52593C16.4435 7.5353 15.6738 7.55439 15.4037 8.33838C15.2773 8.70476 15.2925 9.02286 15.4487 9.28386C15.678 9.6668 16.1173 9.78415 16.5169 9.84854C17.9661 10.0811 18.7104 10.8825 18.8593 12.3703C18.9284 13.064 19.3956 13.5485 19.9954 13.5485H19.9955C20.0398 13.5485 20.0851 13.5459 20.1302 13.5404C20.8516 13.4545 21.2013 12.9245 21.1697 11.9652C21.1813 10.964 20.6573 9.82729 19.7661 8.9219C18.8719 8.01371 17.7939 7.50225 16.8134 7.52593Z" fill="white"/>
</g>
<defs>
<clipPath id="clip0">
<rect width="29" height="29" fill="white"/>
</clipPath>
</defs>
</svg>
