<svg xmlns="http://www.w3.org/2000/svg" viewBox="0 0 40 40" id="whatsapp">
    <path fill-rule="evenodd" clip-rule="evenodd"
        d="M34.172 5.813C30.412 2.066 25.412.003 20.084 0 9.106 0 .17 8.891.167 19.82a19.713 19.713 0 002.659 9.909L0 40l10.558-2.756a19.97 19.97 0 009.518 2.412h.008c10.977 0 19.912-8.892 19.916-19.82.002-5.297-2.068-10.277-5.828-14.023zM20.084 36.309h-.007a16.593 16.593 0 01-8.426-2.296l-.604-.358-6.265 1.636 1.672-6.08-.394-.623a16.376 16.376 0 01-2.53-8.767c.003-9.084 7.43-16.473 16.56-16.473a16.48 16.48 0 0111.704 4.831 16.338 16.338 0 014.844 11.655c-.005 9.084-7.43 16.475-16.554 16.475zm9.08-12.339c-.498-.248-2.945-1.446-3.4-1.611-.457-.165-.789-.248-1.12.248-.332.495-1.286 1.611-1.576 1.942-.29.33-.58.372-1.078.124-.498-.248-2.101-.771-4.002-2.459-1.48-1.313-2.478-2.935-2.769-3.43-.29-.496-.002-.739.219-1.011.538-.666 1.078-1.364 1.244-1.694.166-.33.083-.62-.042-.868-.124-.248-1.12-2.685-1.534-3.677-.404-.966-.814-.835-1.12-.85-.29-.015-.622-.018-.954-.018-.331 0-.87.124-1.327.62-.456.496-1.741 1.694-1.741 4.132 0 2.438 1.783 4.792 2.032 5.123.248.33 3.509 5.333 8.5 7.478a28.57 28.57 0 002.838 1.044c1.192.377 2.277.323 3.134.196.956-.143 2.944-1.198 3.36-2.355.414-1.157.414-2.149.29-2.355-.125-.207-.457-.33-.954-.579z"
        fill="currentColor"></path>
</svg>