<svg width="31" height="31" viewBox="0 0 31 31" fill="none" xmlns="http://www.w3.org/2000/svg">
<path d="M21.3403 13.3203C21.3403 12.6515 20.7982 12.1094 20.1294 12.1094H7.65674C6.98794 12.1094 6.4458 12.6515 6.4458 13.3203C6.4458 13.9891 6.98794 14.5312 7.65674 14.5312H20.1294C20.7982 14.5312 21.3403 13.9891 21.3403 13.3203Z" fill="white"/>
<path d="M7.65674 16.9531C6.98794 16.9531 6.4458 17.4953 6.4458 18.1641C6.4458 18.8329 6.98794 19.375 7.65674 19.375H15.2318C15.9006 19.375 16.4427 18.8329 16.4427 18.1641C16.4427 17.4953 15.9006 16.9531 15.2318 16.9531H7.65674Z" fill="white"/>
<path d="M10.5024 28.5781H6.45251C5.11709 28.5781 4.03064 27.4917 4.03064 26.1562V4.84375C4.03064 3.50833 5.11709 2.42188 6.45251 2.42188H21.3403C22.6757 2.42188 23.7622 3.50833 23.7622 4.84375V12.291C23.7622 12.9598 24.3043 13.502 24.9731 13.502C25.6419 13.502 26.1841 12.9598 26.1841 12.291V4.84375C26.1841 2.17291 24.0112 0 21.3403 0H6.45251C3.78167 0 1.60876 2.17291 1.60876 4.84375V26.1562C1.60876 28.8271 3.78167 31 6.45251 31H10.5024C11.1712 31 11.7134 30.4579 11.7134 29.7891C11.7134 29.1203 11.1712 28.5781 10.5024 28.5781Z" fill="white"/>
<path d="M28.3289 17.5327C26.9125 16.1163 24.6079 16.1162 23.1923 17.5317L16.5441 24.1652C16.4029 24.3061 16.2988 24.4796 16.2408 24.6705L14.7929 29.437C14.6646 29.8597 14.7764 30.3185 15.0848 30.6347C15.3159 30.8715 15.6297 31 15.9517 31C16.0594 31 16.1681 30.9856 16.2749 30.956L21.1625 29.6021C21.3636 29.5464 21.547 29.4396 21.6947 29.2921L28.329 22.6703C29.7454 21.2539 29.7454 18.9492 28.3289 17.5327ZM20.2091 27.3531L17.7502 28.0343L18.4698 25.6652L22.9557 21.1892L24.6685 22.9021L20.2091 27.3531ZM26.6173 20.9571L26.3827 21.1912L24.6702 19.4787L24.904 19.2453C25.3761 18.7732 26.1444 18.7732 26.6165 19.2453C27.0886 19.7175 27.0886 20.4857 26.6173 20.9571Z" fill="white"/>
<path d="M20.1294 7.26562H7.65674C6.98794 7.26562 6.4458 7.80776 6.4458 8.47656C6.4458 9.14536 6.98794 9.6875 7.65674 9.6875H20.1294C20.7982 9.6875 21.3403 9.14536 21.3403 8.47656C21.3403 7.80776 20.7982 7.26562 20.1294 7.26562Z" fill="white"/>
</svg>
