<svg width="0" height="0" class="hidden">
  <symbol xmlns="http://www.w3.org/2000/svg" viewBox="0 0 22 16" id="arrow">
    <path d="M21.707 8.707a1 1 0 000-1.414L15.343.929a1 1 0 10-1.414 1.414L19.586 8l-5.657 5.657a1 1 0 001.414 1.414l6.364-6.364zM0 9h21V7H0v2z" fill="currentColor"></path>
  </symbol>
  <symbol xmlns="http://www.w3.org/2000/svg" viewBox="0 0 36 36" id="doctor">
    <g clip-path="url(#clip0)">
      <path d="M29.095 25.862a12.228 12.228 0 00-4.192-2.955 12.166 12.166 0 00-2.787-.81v-.837a8.309 8.309 0 003.277-3.547c2.38-1.721 3.434-4.533 3.48-4.656l.017-.053c.27-.871.412-1.808.412-2.71C29.302 4.617 24.684 0 19.009 0h-2.02C11.313 0 6.696 4.618 6.696 10.293c0 .916.136 1.82.404 2.687.038.123.936 2.971 3.549 4.976a8.305 8.305 0 003.696 3.595v.48a12.157 12.157 0 00-7.28 3.659 12.166 12.166 0 00-3.409 8.468v.788c0 .582.472 1.054 1.054 1.054h26.578c.582 0 1.054-.472 1.054-1.054v-.788c0-3.085-1.153-6.032-3.247-8.296zm-3.21 8.03h-2.777v-1.764c0-.988.555-1.725 1.052-1.725h.672c.497 0 1.052.738 1.052 1.725v1.765zM20.007 22.95a1.78 1.78 0 01-1.778 1.816 1.78 1.78 0 01-1.778-1.779v-.739a8.252 8.252 0 003.556-.12v.822zM9.113 12.36a6.984 6.984 0 01-.31-2.067c0-4.514 3.672-8.186 8.186-8.186h2.02c4.514 0 8.186 3.672 8.186 8.186a7.19 7.19 0 01-.308 2.057c-.045.114-.269.66-.678 1.336v-.944c0-4.502-3.662-8.202-8.165-8.248h-.01c-.386 0-.741.21-.926.55-.662 1.217-1.7 2.343-3.001 3.258-1.057.741-2.218 1.284-3.357 1.569-.37.092-.663.38-.762.75a8.22 8.22 0 00-.279 2.121v.92a7.912 7.912 0 01-.596-1.303zm3.343 4.503a6.105 6.105 0 01-.64-2.727v-1.393a6.1 6.1 0 01.084-1.01 12.645 12.645 0 003.417-1.707c1.36-.955 2.49-2.118 3.298-3.39 3.075.33 5.487 2.954 5.487 6.106v1.394a6.11 6.11 0 01-.484 2.39.992.992 0 00-.052.12 6.183 6.183 0 01-2.896 3.002 1.038 1.038 0 00-.125.06 6.109 6.109 0 01-2.586.571 6.111 6.111 0 01-2.254-.428 6.18 6.18 0 01-3.25-2.988zm-.266 11.511a.942.942 0 010 1.881.942.942 0 010-1.88zM8.584 27.15a10.15 10.15 0 012.552-1.93v1.236a3.053 3.053 0 00-1.994 2.86 3.051 3.051 0 003.048 3.048 3.051 3.051 0 003.048-3.048c0-1.31-.832-2.43-1.995-2.86v-2.067a10.09 10.09 0 011.274-.256 3.892 3.892 0 003.713 2.74 3.89 3.89 0 003.69-2.67c.52.093 1.028.226 1.522.398v3.797c-1.397.394-2.442 1.916-2.442 3.73v1.765H5.767a10.067 10.067 0 012.817-6.744zm19.407 6.744v-1.765c0-1.814-1.044-3.336-2.442-3.732v-2.775a10.188 10.188 0 012 1.671 10.084 10.084 0 012.682 6.6h-2.24z" fill="currentColor"></path>
    </g>
    <defs>
      <clipPath id="clip0">
        <path fill="currentColor" d="M0 0h36v36H0z"></path>
      </clipPath>
    </defs>
  </symbol>
  <symbol xmlns="http://www.w3.org/2000/svg" viewBox="0 0 19 19" id="phone">
    <path d="M18.502 13.944l-2.657-2.651c-.95-.947-2.563-.569-2.942.663-.285.852-1.234 1.325-2.088 1.136-1.898-.474-4.46-2.936-4.934-4.924-.285-.853.284-1.8 1.138-2.084 1.234-.379 1.614-1.988.665-2.935L5.027.497c-.76-.663-1.898-.663-2.563 0l-1.803 1.8c-1.803 1.893.19 6.912 4.65 11.363 4.46 4.45 9.49 6.534 11.388 4.64l1.803-1.8c.664-.757.664-1.893 0-2.556z" fill="currentColor"></path>
  </symbol>
  <symbol xmlns="http://www.w3.org/2000/svg" viewBox="0 0 29 29" id="viber">
    <g clip-path="url(#clip0)" fill="currentColor">
      <path d="M24.807 12.17c.035-4.09-3.447-7.837-7.762-8.356a5.315 5.315 0 01-.279-.042 4.034 4.034 0 00-.657-.072c-.885 0-1.121.622-1.183.992-.06.36-.003.663.171.9.293.398.808.469 1.222.525.122.017.236.033.332.054 3.877.867 5.182 2.229 5.82 6.073.016.094.023.21.03.332.028.46.086 1.415 1.114 1.415.086 0 .178-.007.273-.021.957-.146.927-1.02.913-1.44-.004-.118-.008-.23.002-.304a.41.41 0 00.004-.057z"></path>
      <path d="M15.858 2.314c.115.008.223.016.314.03 6.366.979 9.294 3.995 10.105 10.411.014.11.017.242.019.383.008.502.024 1.544 1.144 1.566h.035c.351 0 .63-.106.83-.315.35-.364.325-.906.305-1.341-.005-.107-.01-.208-.008-.296C28.683 6.19 23.002.239 16.447.018c-.028 0-.053 0-.08.004a.55.55 0 01-.077.005c-.066 0-.146-.006-.232-.012C15.955.008 15.838 0 15.72 0c-1.044 0-1.243.742-1.268 1.185-.059 1.022.93 1.094 1.406 1.129zM25.97 21.048c-.135-.104-.275-.21-.406-.316-.695-.56-1.435-1.075-2.15-1.574a146.13 146.13 0 01-.445-.31c-.916-.644-1.74-.957-2.517-.957-1.049 0-1.962.58-2.716 1.721-.335.507-.74.753-1.24.753-.295 0-.63-.085-.997-.25-2.957-1.342-5.069-3.398-6.276-6.112-.584-1.311-.394-2.169.633-2.867.583-.395 1.669-1.132 1.592-2.544-.087-1.603-3.624-6.426-5.114-6.973-.63-.232-1.293-.234-1.973-.006C2.648 2.19 1.418 3.2.805 4.538.213 5.83.24 7.347.883 8.925 2.74 13.488 5.355 17.467 8.65 20.75c3.226 3.214 7.19 5.846 11.784 7.824.414.178.848.275 1.165.346.108.024.201.045.27.064.037.01.075.015.114.016h.036c2.161 0 4.755-1.974 5.552-4.225.698-1.97-.577-2.945-1.6-3.727zM16.813 7.526c-.37.01-1.14.028-1.41.812-.126.367-.11.685.046.946.229.383.668.5 1.068.565 1.45.232 2.193 1.034 2.342 2.521.07.694.537 1.179 1.136 1.179.045 0 .09-.003.135-.009.722-.085 1.071-.615 1.04-1.575.011-1.001-.513-2.138-1.404-3.043-.894-.908-1.972-1.42-2.953-1.396z"></path>
    </g>
    <defs>
      <clipPath id="clip0">
        <path fill="currentColor" d="M0 0h29v29H0z"></path>
      </clipPath>
    </defs>
  </symbol>
  <symbol xmlns="http://www.w3.org/2000/svg" viewBox="0 0 40 40" id="whatsapp">
    <path fill-rule="evenodd" clip-rule="evenodd" d="M34.172 5.813C30.412 2.066 25.412.003 20.084 0 9.106 0 .17 8.891.167 19.82a19.713 19.713 0 002.659 9.909L0 40l10.558-2.756a19.97 19.97 0 009.518 2.412h.008c10.977 0 19.912-8.892 19.916-19.82.002-5.297-2.068-10.277-5.828-14.023zM20.084 36.309h-.007a16.593 16.593 0 01-8.426-2.296l-.604-.358-6.265 1.636 1.672-6.08-.394-.623a16.376 16.376 0 01-2.53-8.767c.003-9.084 7.43-16.473 16.56-16.473a16.48 16.48 0 0111.704 4.831 16.338 16.338 0 014.844 11.655c-.005 9.084-7.43 16.475-16.554 16.475zm9.08-12.339c-.498-.248-2.945-1.446-3.4-1.611-.457-.165-.789-.248-1.12.248-.332.495-1.286 1.611-1.576 1.942-.29.33-.58.372-1.078.124-.498-.248-2.101-.771-4.002-2.459-1.48-1.313-2.478-2.935-2.769-3.43-.29-.496-.002-.739.219-1.011.538-.666 1.078-1.364 1.244-1.694.166-.33.083-.62-.042-.868-.124-.248-1.12-2.685-1.534-3.677-.404-.966-.814-.835-1.12-.85-.29-.015-.622-.018-.954-.018-.331 0-.87.124-1.327.62-.456.496-1.741 1.694-1.741 4.132 0 2.438 1.783 4.792 2.032 5.123.248.33 3.509 5.333 8.5 7.478a28.57 28.57 0 002.838 1.044c1.192.377 2.277.323 3.134.196.956-.143 2.944-1.198 3.36-2.355.414-1.157.414-2.149.29-2.355-.125-.207-.457-.33-.954-.579z" fill="currentColor"></path>
  </symbol>
  <symbol xmlns="http://www.w3.org/2000/svg" viewBox="0 0 31 31" id="writing">
    <path d="M21.34 13.32a1.21 1.21 0 00-1.21-1.21H7.656a1.21 1.21 0 100 2.421h12.472a1.21 1.21 0 001.211-1.21zM7.657 16.953a1.211 1.211 0 000 2.422h7.575a1.21 1.21 0 100-2.422H7.657z" fill="currentColor"></path>
    <path d="M10.502 28.578h-4.05a2.425 2.425 0 01-2.421-2.422V4.844a2.425 2.425 0 012.422-2.422H21.34a2.425 2.425 0 012.422 2.422v7.447a1.21 1.21 0 102.422 0V4.844A4.85 4.85 0 0021.34 0H6.453a4.85 4.85 0 00-4.844 4.844v21.312A4.85 4.85 0 006.453 31h4.05a1.21 1.21 0 100-2.422z" fill="currentColor"></path>
    <path d="M28.329 17.533a3.637 3.637 0 00-5.137-.001l-6.648 6.633a1.21 1.21 0 00-.303.506l-1.448 4.766a1.211 1.211 0 001.482 1.519l4.888-1.354a1.21 1.21 0 00.532-.31l6.634-6.622a3.637 3.637 0 000-5.137zm-8.12 9.82l-2.459.681.72-2.369 4.486-4.476 1.713 1.713-4.46 4.451zm6.408-6.396l-.234.234-1.713-1.712.234-.234a1.212 1.212 0 011.712 0c.473.473.473 1.24.001 1.712zM20.13 7.266H7.656a1.21 1.21 0 100 2.421h12.472a1.21 1.21 0 100-2.421z" fill="currentColor"></path>
  </symbol>
  <symbol xmlns="http://www.w3.org/2000/svg" viewBox="0 0 16 16" id="download">
    <path d="M14.75 9.781v4.344c0 .345-.28.625-.625.625H1.875a.626.626 0 01-.625-.625V9.781H0v4.344C0 15.159.841 16 1.875 16h12.25A1.877 1.877 0 0016 14.125V9.781h-1.25z" fill="currentColor"></path>
    <path d="M11 7.366L8.625 9.741V0h-1.25v9.741L5 7.366l-.884.884L8 12.134l3.884-3.884L11 7.366z" fill="currentColor"></path>
  </symbol>
</svg>